<svg width="205" height="74" viewBox="0 0 205 74" fill="none" xmlns="http://www.w3.org/2000/svg">
<path fill-rule="evenodd" clip-rule="evenodd" d="M33.7853 36.2974C39.4009 34.7791 47.3541 30.8386 47.3541 21.2347C47.3541 16.581 45.3395 12.1321 41.7385 9.7099C38.6218 7.48545 34.1854 6.27083 26.6463 6.27083H0.821292V9.09552C8.85872 9.70283 9.24479 10.3031 9.24479 18.6995V59.4457C9.24479 67.9198 8.64111 68.5413 0 69.1486V71.9733H22.224C30.1632 71.9733 36.7967 70.7587 41.921 67.9269C47.8525 64.5938 51.5729 59.4528 51.5729 52.6665C51.5729 42.5541 43.732 38.1052 33.7853 36.5869V36.2974ZM180.417 71.9874H158.018V69.3604C164.336 68.7531 165.255 68.1458 165.255 61.4725V13.6503C165.255 6.77221 164.651 6.46856 158.32 5.96717V3.53087C163.381 2.85294 168.365 1.66657 173.194 0V47.0171H175.111C179.203 47.0171 181.863 46.664 183.871 45.0469C187.002 42.6247 188.286 39.8424 188.286 35.4782C188.286 30.1678 186.244 26.8911 183.218 25.1398L183.569 24.3418L188.651 22.5976C189.276 22.9012 189.873 23.2402 190.455 23.6215C193.67 25.7401 195.762 29.3627 195.762 34.2141C195.762 41.17 191.501 45.4564 185.556 48.041C186.925 50.7104 190.294 56.1267 192.709 59.7635C195.601 64.0006 197.208 66.0697 199.216 68.1741C200.711 70.0101 202.733 71.3377 205 71.9733L204.853 72.9549C204.256 73.661 203.561 73.9859 202.108 74H201.869C195.776 73.6822 191.003 71.8815 187.388 66.6417C184.58 62.68 181.681 57.6662 179.273 53.7046C177.869 51.4448 176.311 50.4773 173.819 50.4773H173.194V61.4725C173.194 68.1458 173.994 68.7531 180.431 69.3604L180.417 71.9874ZM98.2882 15.0133C98.3304 14.8932 98.1268 14.7096 97.8741 14.7096C97.7898 14.7025 97.7126 14.7308 97.6635 14.8014C96.779 16.6375 94.975 17.845 92.9534 17.958H90.4403C89.7735 18.0357 89.1698 17.5484 89.0996 16.8846C89.0856 16.7858 89.0926 16.6869 89.0996 16.588V10.8821H92.0127C93.2131 10.8821 93.8799 11.1787 94.1186 13.4314C94.1186 13.5232 94.259 13.6221 94.4415 13.6221C94.624 13.6221 94.7644 13.5232 94.7644 13.4314C94.7644 12.2733 94.631 11.6448 94.631 10.5573C94.631 9.4698 94.7644 8.86249 94.7644 7.73261C94.7644 7.61962 94.603 7.549 94.4415 7.549C94.2801 7.549 94.1186 7.61962 94.1186 7.73261C93.8448 9.9853 93.178 10.1689 92.0127 10.1689H89.0926V4.94322C88.9943 4.26529 89.4576 3.6368 90.1245 3.53793C90.2298 3.52381 90.328 3.51675 90.4333 3.53087H92.7638C94.4836 3.41788 96.0279 4.57601 96.414 6.27083C96.4561 6.37675 96.5544 6.44031 96.6667 6.43325C96.9194 6.43325 97.1019 6.32026 97.0598 6.15784C96.7088 5.00678 96.4561 3.8204 96.2947 2.62697C94.8416 2.69759 91.8653 2.7682 90.321 2.7682C88.7767 2.7682 85.8215 2.69759 84.3684 2.62697C84.2491 2.62697 84.1789 2.78939 84.1789 2.95181C84.1789 3.11423 84.2491 3.27665 84.3684 3.27665C86.6006 3.55912 86.741 4.04638 86.741 5.25394V16.242C86.741 17.4284 86.6006 17.9368 84.3684 18.191C84.2491 18.191 84.1789 18.3323 84.1789 18.5159C84.1789 18.6995 84.2491 18.8407 84.3684 18.8407C85.8215 18.7984 89.0294 18.6995 90.5527 18.6995C92.0759 18.6995 95.3049 18.7984 96.758 18.8407C97.1791 17.5272 97.6916 16.2491 98.2882 15.0133ZM106.712 15.8466C106.712 13.0219 101.637 12.9442 101.637 10.7833C101.637 9.78758 102.191 9.20851 103.434 9.20851C104.451 9.26501 105.259 10.0842 105.308 11.1081C105.308 11.2282 105.462 11.2988 105.631 11.2988C105.799 11.2988 105.975 11.207 105.954 11.1081C105.883 10.4019 105.834 9.60397 105.813 8.79187C105.35 8.79187 104.36 8.46703 103.342 8.46703C101.496 8.46703 99.8326 9.76639 99.8326 11.433C99.8326 14.8508 104.816 14.3636 104.816 16.6375C104.901 17.5555 104.227 18.3676 103.314 18.4453C103.209 18.4523 103.097 18.4523 102.991 18.4453C101.763 18.3323 100.717 17.499 100.317 16.3267C100.317 16.2067 100.155 16.1361 99.994 16.1361C99.8326 16.1361 99.65 16.2349 99.6711 16.3267C99.7904 16.927 99.994 17.9721 100.085 18.7842C100.787 18.7842 101.959 19.2009 102.97 19.2009C104.964 19.1868 106.712 17.7956 106.712 15.8466ZM115.065 9.60397C115.065 9.25088 114.946 8.97547 114.763 8.97547H111.373L111.464 6.74396C111.464 6.65216 111.303 6.56036 111.141 6.56036C111.008 6.56036 110.888 6.63098 110.818 6.74396C110.081 7.83147 109.126 8.7495 108.01 9.44155C107.891 9.51923 107.814 9.64634 107.8 9.78757C107.793 9.94293 107.905 10.07 108.052 10.0912H108.93C109.091 10.0912 109.218 10.2395 109.211 10.4019V10.4161L109.162 16.0655C109.007 17.5767 110.095 18.9325 111.597 19.095C111.745 19.1091 111.899 19.1161 112.047 19.102C113.036 19.1161 113.991 18.756 114.728 18.0851C114.798 18.0145 114.833 17.9227 114.84 17.8238C114.84 17.619 114.679 17.386 114.56 17.4566C114.047 17.7673 113.451 17.9227 112.854 17.8945C111.773 17.8945 111.31 17.1883 111.31 15.7124V10.1336L114.749 10.2254C114.953 10.2254 115.072 9.97118 115.072 9.60397H115.065ZM122.183 13.841L122.092 16.9482C121.649 17.6261 120.891 18.0286 120.084 18.0145C119.277 18.0145 118.814 17.4143 118.814 16.3691C118.821 14.9426 120.463 14.2718 122.19 13.8763V13.841H122.183ZM126.191 17.7815C126.191 17.5061 125.959 17.2942 125.847 17.3931C125.615 17.6544 125.293 17.8168 124.949 17.8521C124.598 17.8521 124.141 17.6685 124.162 16.5527L124.324 11.3059C124.471 9.87232 123.439 8.58708 122.007 8.43878C121.846 8.42466 121.678 8.4176 121.516 8.43878C119.74 8.43878 116.904 10.063 116.904 11.2635C116.89 11.6942 117.22 12.0615 117.655 12.0756C117.683 12.0756 117.711 12.0756 117.732 12.0756C118.434 12.0756 119.094 11.5883 119.136 10.5008C119.136 9.79464 119.951 9.33562 120.779 9.33562C121.607 9.33562 122.302 10.0418 122.281 11.214L122.211 13.0289C120.709 13.4244 116.595 14.5613 116.595 16.8846C116.595 18.1204 117.578 19.1303 118.806 19.1373C118.856 19.1373 118.898 19.1373 118.947 19.1373C120.147 19.1656 121.312 18.7066 122.176 17.8662C122.436 18.6289 123.166 19.1232 123.966 19.0808C124.794 19.0596 125.566 18.6712 126.072 18.0145C126.135 17.9721 126.177 17.9086 126.198 17.8309V17.7956L126.191 17.7815ZM133.618 9.60397C133.618 9.25088 133.506 8.97547 133.316 8.97547H129.926L130.017 6.74396C130.017 6.65216 129.855 6.56036 129.694 6.56036C129.561 6.56036 129.441 6.63098 129.371 6.74396C128.634 7.83147 127.679 8.7495 126.563 9.44155C126.444 9.51923 126.367 9.64634 126.36 9.78757C126.346 9.94293 126.458 10.0771 126.612 10.0912H127.49C127.651 10.0912 127.771 10.2325 127.763 10.3949V10.4161L127.721 16.0655C127.56 17.5767 128.641 18.9255 130.143 19.095C130.298 19.1091 130.452 19.1161 130.606 19.102C131.596 19.1161 132.551 18.7489 133.281 18.0851C133.351 18.0145 133.393 17.9227 133.393 17.8238C133.393 17.619 133.232 17.386 133.119 17.4566C132.607 17.7673 132.01 17.9227 131.414 17.8945C130.326 17.8945 129.862 17.1883 129.862 15.7124V10.1336L133.302 10.2254C133.506 10.2254 133.618 9.97118 133.618 9.60397ZM144.147 12.2521C143.979 10.063 142.119 8.38935 139.935 8.46703C136.889 8.46703 135.022 11.0869 135.022 13.8975C135.022 16.7081 137.128 19.1868 139.935 19.1868C141.606 19.1091 143.136 18.2122 144.021 16.7787C144.063 16.7222 144.091 16.6587 144.091 16.588C144.091 16.2632 143.81 16.0796 143.74 16.1926C143.017 17.1318 141.922 17.7038 140.743 17.7532C138.693 17.7532 137.352 16.475 137.352 13.8763C137.352 13.4385 137.373 13.0007 137.422 12.5699H143.74C143.951 12.5699 144.112 12.4569 144.112 12.2521H144.147ZM142.041 11.2282C142.041 11.6024 141.852 11.8072 140.701 11.8284L137.493 11.9202C137.766 10.4584 138.623 9.20851 139.914 9.20851C141.009 9.14496 141.95 9.9853 142.013 11.094C142.013 11.1364 142.013 11.1858 142.013 11.2282H142.041ZM155.379 57.9134C151.574 63.0049 148.513 64.7774 144.26 65.533C138.721 66.5146 128.676 64.4102 126.247 50.5691C124.366 40.1107 129.16 33.6139 135.682 32.484C139.388 31.8555 143.186 32.6959 146.295 34.8144C147.32 35.4499 147.875 35.6618 148.401 35.5771C149.489 35.3793 151.286 32.8089 150.914 30.7115C150.725 29.6169 150.268 28.7766 148.808 27.8868C146.997 26.877 143.501 26.1567 139.542 26.8629C135.583 27.569 129.947 30.1325 125.503 35.0262C119.775 41.3818 117.599 47.8927 118.947 55.5547C120.814 66.2109 129.918 75.0663 142.385 72.856C148.226 71.8179 154.087 66.2603 157.435 59.7141L155.379 57.9134ZM116.806 68.047L115.823 65.4129C114.728 66.0838 113.486 66.4722 112.208 66.5287C110.495 66.5287 108.698 65.0104 108.698 60.4626V41.6643C108.698 36.4033 107.687 32.258 104.171 29.3274C101.812 27.5055 98.906 26.538 95.9297 26.6016C90.2017 27.7103 83.6665 31.6507 80.8586 33.6633C78.9493 35.0757 77.6436 36.1914 77.6436 37.7026C77.6436 40.033 80.2549 42.0527 82.066 42.0527C83.498 42.1021 84.7334 41.057 84.937 39.6305C85.7372 36.601 86.6428 34.3766 87.9484 33.0631C89.0785 31.7355 90.7492 31.001 92.483 31.0717C97.5091 31.0717 100.907 35.2169 100.907 42.4905V44.3124C98.6954 46.1344 91.3599 48.8602 85.3301 50.8869C79.8057 52.8077 77.1874 55.9431 77.1874 60.8934C77.1172 67.6374 82.4942 73.1597 89.1979 73.2303H89.247C92.2654 73.2303 97.0879 69.4875 101.11 66.7547C101.524 68.4495 102.353 70.0172 103.518 71.3095C104.852 72.4394 106.508 73.1102 108.242 73.2303L116.806 68.047ZM100.928 63.4921C99.0183 65.3141 95.5015 67.023 92.8902 67.136C89.7735 67.136 85.7513 64.6079 85.7513 59.3681C85.7513 55.7313 87.9624 53.8105 91.8864 51.9886C93.9922 50.9787 98.8147 48.8531 100.928 47.7515V63.4921ZM74.5129 71.9662V69.3604C68.09 68.7531 67.2757 68.1458 67.2757 61.4725V0C62.4462 1.66657 57.4623 2.85294 52.4012 3.53087V5.96717C58.7188 6.46856 59.3366 6.77221 59.3366 13.6503V61.4725C59.3366 68.1458 58.431 68.7531 52.0994 69.3604V71.9874L74.5129 71.9662ZM17.7034 38.7266H22.3223C34.5855 38.7266 41.6191 43.2744 41.6191 53.6904C41.6191 64.1065 34.2837 68.4495 26.0427 68.5201C19.6127 68.5201 17.7034 66.5993 17.7034 59.3398V38.7266ZM17.7034 35.3864V15.5711C17.7034 12.2309 18.1035 11.1222 19.009 10.5149C19.9146 9.90763 22.224 9.50511 24.737 9.50511C34.2837 9.50511 38.0742 15.5711 38.0742 22.4422C38.0742 30.9163 33.4553 35.3864 22.3995 35.3864H17.7034Z" fill="#45040C"/>
</svg>
