<svg width="35" height="36" viewBox="0 0 35 36" fill="none" xmlns="http://www.w3.org/2000/svg">
<path d="M10.4971 28.8C8.57264 28.8 7.01557 30.42 7.01557 32.4C7.01557 34.38 8.57264 36 10.4971 36C12.4216 36 13.9961 34.38 13.9961 32.4C13.9961 30.42 12.4216 28.8 10.4971 28.8ZM0 1.8C0 2.79 0.787283 3.6 1.74952 3.6H3.49904L9.7973 17.262L7.43545 21.654C6.15831 24.066 7.83784 27 10.4971 27H29.7418C30.7041 27 31.4913 26.19 31.4913 25.2C31.4913 24.21 30.7041 23.4 29.7418 23.4H10.4971L12.4216 19.8H25.4555C26.7676 19.8 27.9223 19.062 28.5172 17.946L34.7804 6.264C34.9279 5.99117 35.0035 5.68345 34.9999 5.3713C34.9962 5.05915 34.9134 4.75339 34.7597 4.48427C34.6059 4.21515 34.3865 3.99201 34.1232 3.83691C33.8599 3.68182 33.5618 3.60016 33.2584 3.6H7.36547L6.1933 1.026C6.05269 0.718753 5.82992 0.459075 5.55106 0.27737C5.2722 0.0956655 4.94881 -0.000545149 4.61873 2.32352e-06H1.74952C0.787283 2.32352e-06 0 0.810002 0 1.8ZM27.9923 28.8C26.0678 28.8 24.5108 30.42 24.5108 32.4C24.5108 34.38 26.0678 36 27.9923 36C29.9168 36 31.4913 34.38 31.4913 32.4C31.4913 30.42 29.9168 28.8 27.9923 28.8Z" fill="#45040C"/>
</svg>
