<svg width="781" height="36" viewBox="0 0 781 36" fill="none" xmlns="http://www.w3.org/2000/svg">
<path d="M369.639 22H52.3606C51.0623 22 50 21.1 50 20C50 18.9 51.0623 18 52.3606 18H369.639C370.938 18 372 18.9 372 20C372 21.1 370.938 22 369.639 22Z" fill="#45040C"/>
<path d="M722.639 22H405.361C404.062 22 403 21.1 403 20C403 18.9 404.062 18 405.361 18H722.639C723.938 18 725 18.9 725 20C725 21.1 723.938 22 722.639 22Z" fill="#45040C"/>
<path d="M733.718 28.9974C731.957 28.9974 732.48 29.039 720.928 21.4749C719.691 20.6634 719.691 19.342 720.928 18.5304L731.481 11.6115C732.448 10.9768 733.924 10.8207 735.146 11.2161L756.251 18.1351C758.583 18.905 758.583 21.0899 756.251 21.8599C733.401 29.3511 734.813 28.9974 733.734 28.9974H733.718ZM727.656 19.9975L734.337 24.3778L747.714 19.9975L734.337 15.6172L727.656 19.9975Z" fill="#45040C"/>
<path d="M39.271 28.6407C38.2077 28.6407 39.6678 29.0078 16.7498 21.6447C14.4167 20.89 14.4167 18.7483 16.7498 17.9937L37.8585 11.2118C39.0806 10.8243 40.5566 10.9772 41.5248 11.5993C53.2377 19.1257 52.9996 18.6974 52.9996 19.8192C52.9996 20.941 53.079 20.6146 41.5248 28.039C40.9216 28.4265 40.0963 28.6407 39.2869 28.6407H39.271ZM25.2726 19.8192L38.6521 24.1127L45.3338 19.8192L38.6521 15.5257L25.2726 19.8192Z" fill="#45040C"/>
<path d="M62.0963 13C59.2963 13 59.3063 9 62.0963 9C63.1963 9 64.0963 9.9 64.0963 11C64.0963 12.1 63.1963 13 62.0963 13Z" fill="#45040C"/>
<path d="M89.2263 13C88.1263 13 87.2263 12.1 87.2263 11C87.2263 8.34999 91.4463 8.31999 91.4463 11C91.4463 11.37 91.2463 13 89.2263 13ZM80.1063 13C79.0063 13 78.1063 12.1 78.1063 11C78.1063 8.34999 82.3263 8.31999 82.3263 11C82.3263 11.37 82.1263 13 80.1063 13ZM70.9863 13C69.8863 13 68.9863 12.1 68.9863 11C68.9863 8.34999 73.2063 8.31999 73.2063 11C73.2063 11.37 73.0063 13 70.9863 13Z" fill="#45040C"/>
<path d="M98.4463 13C95.6463 13 95.6563 9 98.4463 9C99.5463 9 100.446 9.9 100.446 11C100.446 12.1 99.5463 13 98.4463 13Z" fill="#45040C"/>
<path d="M716.446 35C713.646 35 713.656 31 716.446 31C717.546 31 718.446 31.9 718.446 33C718.446 34.1 717.546 35 716.446 35Z" fill="#45040C"/>
<path d="M707.226 35C706.126 35 705.226 34.1 705.226 33C705.226 30.35 709.446 30.32 709.446 33C709.446 33.37 709.246 35 707.226 35ZM698.106 35C697.006 35 696.106 34.1 696.106 33C696.106 30.35 700.326 30.32 700.326 33C700.326 33.37 700.126 35 698.106 35ZM688.986 35C687.886 35 686.986 34.1 686.986 33C686.986 30.35 691.206 30.32 691.206 33C691.206 33.37 691.006 35 688.986 35Z" fill="#45040C"/>
<path d="M680.096 35C677.296 35 677.306 31 680.096 31C681.196 31 682.096 31.9 682.096 33C682.096 34.1 681.196 35 680.096 35Z" fill="#45040C"/>
<path d="M385 33C384.602 33 384.221 32.842 383.939 32.5607C383.658 32.2794 383.5 31.8978 383.5 31.5V16.5C383.5 13.5 385 10.875 386.5 10.5V3.75C386.5 3.55109 386.579 3.36032 386.72 3.21967C386.86 3.07902 387.051 3 387.25 3H388.75C388.949 3 389.14 3.07902 389.28 3.21967C389.421 3.36032 389.5 3.55109 389.5 3.75V10.5C391 10.875 392.5 13.5 392.5 16.5V31.5C392.5 31.8978 392.342 32.2794 392.061 32.5607C391.779 32.842 391.398 33 391 33H385Z" fill="#45040C"/>
</svg>
